<svg xmlns="http://www.w3.org/2000/svg" width="12.123" height="12.403" viewBox="0 0 12.123 12.403">
  <path id="download_icon" data-name="download icon" d="M5.325,12.852a.6.6,0,0,0-1.2,0Zm-.6.8h0Zm11.523-.8a.6.6,0,0,0-1.2,0Zm-6.535.431a.6.6,0,0,0,.946.738ZM13.78,10.02a.6.6,0,0,0-.946-.738Zm-4.067,4a.6.6,0,0,0,.946-.738ZM7.539,9.282a.6.6,0,0,0-.946.738Zm2.047,4.37a.6.6,0,0,0,1.2,0Zm1.2-8.8a.6.6,0,1,0-1.2,0Zm-6.662,8v.8h1.2v-.8Zm0,.8a2.971,2.971,0,0,0,2.941,3v-1.2a1.771,1.771,0,0,1-1.74-1.8Zm2.941,3h6.241v-1.2H7.066Zm6.241,0a2.971,2.971,0,0,0,2.941-3h-1.2a1.771,1.771,0,0,1-1.74,1.8Zm2.941-3v-.8h-1.2v.8Zm-5.588.369,3.121-4-.946-.738-3.121,4Zm0-.738-3.121-4-.946.738,3.121,4Zm.127.369V4.85h-1.2v8.8Z" transform="translate(-4.125 -4.25)" fill="#fff"/>
</svg>
