<svg width="24" height="24" viewBox="0 0 24 24" fill="none" xmlns="http://www.w3.org/2000/svg">
<path d="M8.15375 9.1155C8.01208 9.1155 7.89333 9.0675 7.7975 8.9715C7.70167 8.8755 7.65375 8.75658 7.65375 8.61475C7.65375 8.47292 7.70167 8.35425 7.7975 8.25875C7.89333 8.16325 8.01208 8.1155 8.15375 8.1155H19.5C19.6417 8.1155 19.7604 8.16342 19.8562 8.25925C19.9521 8.35525 20 8.47417 20 8.616C20 8.75783 19.9521 8.8765 19.8562 8.972C19.7604 9.06767 19.6417 9.1155 19.5 9.1155H8.15375ZM8.15375 12.5C8.01208 12.5 7.89333 12.452 7.7975 12.356C7.70167 12.26 7.65375 12.1411 7.65375 11.9993C7.65375 11.8574 7.70167 11.7388 7.7975 11.6433C7.89333 11.5478 8.01208 11.5 8.15375 11.5H19.5C19.6417 11.5 19.7604 11.548 19.8562 11.644C19.9521 11.74 20 11.8589 20 12.0008C20 12.1426 19.9521 12.2613 19.8562 12.3568C19.7604 12.4523 19.6417 12.5 19.5 12.5H8.15375ZM8.15375 15.8845C8.01208 15.8845 7.89333 15.8366 7.7975 15.7408C7.70167 15.6448 7.65375 15.5258 7.65375 15.384C7.65375 15.2422 7.70167 15.1235 7.7975 15.028C7.89333 14.9323 8.01208 14.8845 8.15375 14.8845H19.5C19.6417 14.8845 19.7604 14.9325 19.8562 15.0285C19.9521 15.1245 20 15.2434 20 15.3853C20 15.5271 19.9521 15.6458 19.8562 15.7413C19.7604 15.8368 19.6417 15.8845 19.5 15.8845H8.15375ZM4.6155 9.23075C4.441 9.23075 4.29483 9.16992 4.177 9.04825C4.059 8.92658 4 8.77592 4 8.59625C4 8.42725 4.059 8.28567 4.177 8.1715C4.29483 8.05717 4.441 8 4.6155 8C4.78983 8 4.93592 8.05717 5.05375 8.1715C5.17175 8.28567 5.23075 8.42725 5.23075 8.59625C5.23075 8.77592 5.17175 8.92658 5.05375 9.04825C4.93592 9.16992 4.78983 9.23075 4.6155 9.23075ZM4.6155 12.5963C4.441 12.5963 4.29483 12.5391 4.177 12.4247C4.059 12.3104 4 12.1688 4 12C4 11.8063 4.059 11.6522 4.177 11.5375C4.29483 11.4228 4.441 11.3655 4.6155 11.3655C4.78983 11.3655 4.93592 11.4228 5.05375 11.5375C5.17175 11.6522 5.23075 11.8063 5.23075 12C5.23075 12.1688 5.17175 12.3104 5.05375 12.4247C4.93592 12.5391 4.78983 12.5963 4.6155 12.5963ZM4.6155 16C4.441 16 4.29483 15.9392 4.177 15.8175C4.059 15.6958 4 15.5452 4 15.3655C4 15.1965 4.059 15.0549 4.177 14.9408C4.29483 14.8264 4.441 14.7692 4.6155 14.7692C4.78983 14.7692 4.93592 14.8264 5.05375 14.9408C5.17175 15.0549 5.23075 15.1965 5.23075 15.3655C5.23075 15.5452 5.17175 15.6958 5.05375 15.8175C4.93592 15.9392 4.78983 16 4.6155 16Z" fill="#020F41"/>
</svg>
