<svg width="16" height="16" viewBox="0 0 16 16" fill="none" xmlns="http://www.w3.org/2000/svg">
<path d="M10.4845 15.573L5 13.6595L1.09825 15.168C0.958417 15.224 0.824583 15.2418 0.69675 15.2215C0.56875 15.2012 0.450917 15.1572 0.34325 15.0895C0.235583 15.0217 0.151417 14.9303 0.0907501 14.8152C0.0302501 14.7001 0 14.5681 0 14.4193V2.24675C0 2.05875 0.0432501 1.89242 0.12975 1.74775C0.21625 1.60308 0.34225 1.50192 0.50775 1.44425L4.4655 0.1C4.54767 0.0666667 4.63333 0.0416667 4.7225 0.025C4.8115 0.00833333 4.904 0 5 0C5.096 0 5.1885 0.00833333 5.2775 0.025C5.36667 0.0416667 5.45233 0.0666667 5.5345 0.1L11 2.0135L14.9018 0.505C15.0416 0.449 15.1754 0.431167 15.3033 0.4515C15.4313 0.471833 15.5491 0.515834 15.6568 0.583501C15.7644 0.651334 15.8486 0.74275 15.9093 0.85775C15.9698 0.972917 16 1.10492 16 1.25375V13.512C16 13.7013 15.9471 13.8666 15.8413 14.0078C15.7356 14.1488 15.5937 14.2481 15.4155 14.3058L11.5155 15.5922C11.4282 15.6256 11.3427 15.6474 11.2592 15.6578C11.1756 15.6679 11.0887 15.673 10.9985 15.673C10.9085 15.673 10.8222 15.6647 10.7395 15.648C10.6568 15.6313 10.5718 15.6063 10.4845 15.573ZM10.5 14.5402V2.84025L5.5 1.09425V12.7943L10.5 14.5402ZM11.5 14.5402L15 13.3865V1.5365L11.5 2.84025V14.5402ZM1 14.1365L4.5 12.7943V1.09425L1 2.2865V14.1365Z" fill="#020F41"/>
</svg>
